<svg t="1701785550177" class="icon" viewBox="0 0 1084 1024" version="1.1" xmlns="http://www.w3.org/2000/svg" p-id="2313" width="200" height="200"><path d="M240.941176 102.4h602.352942c66.258824 0 120.470588 54.211765 120.470588 120.470588v554.164706c0 66.258824-54.211765 120.470588-120.470588 120.470588H240.941176c-66.258824 0-120.470588-54.211765-120.470588-120.470588V222.870588c0-66.258824 54.211765-120.470588 120.470588-120.470588z" fill="#273945" p-id="2314"></path><path d="M903.529412 987.858824h-234.917647v-60.235295H903.529412c48.188235 0 90.352941-36.141176 90.352941-84.329411v-222.870589h60.235294V843.294118c0 78.305882-66.258824 144.564706-150.588235 144.564706z m-481.882353 0H180.705882C96.376471 987.858824 30.117647 921.6 30.117647 843.294118v-222.870589h60.235294V843.294118c0 48.188235 42.164706 84.329412 90.352941 84.329411h240.941177v60.235295zM90.352941 391.529412h-60.235294V162.635294C30.117647 84.329412 96.376471 18.070588 180.705882 18.070588h240.941177v60.235294H180.705882c-48.188235 0-90.352941 36.141176-90.352941 84.329412v228.894118z m963.764706-6.02353h-60.235294V162.635294c0-48.188235-42.164706-84.329412-90.352941-84.329412h-240.941177v-60.235294h240.941177c84.329412 0 150.588235 66.258824 150.588235 144.564706v222.870588z" fill="#0183FF" p-id="2315"></path><path d="M993.882353 559.224471h-903.529412c-18.070588 0-30.117647-12.047059-30.117647-30.117647s12.047059-30.117647 30.117647-30.117648h903.529412c18.070588 0 30.117647 12.047059 30.117647 30.117648s-12.047059 30.117647-30.117647 30.117647zM542.117647 812.212706c-144.564706 0-271.058824-90.352941-313.223529-216.847059 0-6.023529 0-12.047059-6.02353-12.047059l60.235294-18.070588 6.02353 12.047059c30.117647 108.423529 132.517647 174.682353 252.988235 174.682353s228.894118-78.305882 259.011765-186.729412l60.235294 18.070588c-42.164706 138.541176-168.658824 228.894118-319.247059 228.894118zM271.058824 474.895059l-60.235295-6.02353c18.070588-156.611765 156.611765-283.105882 331.294118-283.105882 66.258824 0 126.494118 18.070588 180.705882 54.211765l-30.117647 48.188235c-48.188235-24.094118-96.376471-42.164706-150.588235-42.164706-138.541176 0-259.011765 102.4-271.058823 228.894118z" fill="#2FC19A" p-id="2316"></path><path d="M831.247059 215.883294l6.023529 132.517647 114.447059 72.282353-319.247059 42.164706z" fill="#D4F2EA" p-id="2317"></path></svg>